<?xml version="1.0" encoding="utf-8"?>
<!-- Generator: Adobe Illustrator 24.0.1, SVG Export Plug-In . SVG Version: 6.00 Build 0)  -->
<svg version="1.1" xmlns="http://www.w3.org/2000/svg" xmlns:xlink="http://www.w3.org/1999/xlink" x="0px" y="0px"
	 viewBox="0 0 524.35 177.02" style="enable-background:new 0 0 524.35 177.02;" xml:space="preserve">
<style type="text/css">
	.st0{fill:#FCD800;}
	.st1{fill:#2A4798;}
	.st2{font-family:'Manrope-Bold';}
	.st3{font-size:94.8771px;}
	.st4{fill:#2A4898;}
	.st5{fill:#FFFFFF;}
</style>
<g id="Camada_2">
</g>
<g id="Camada_1">
</g>
<g id="Camada_3">
	<g>
		<path class="st0" d="M458.39,21.94c-50.81-20.1-114.89,16.9-109.55,80.62c2.34,27.93,15.35,49.5,42.36,60.53
			c17.18,7.01,35.1,8.57,53.42,5.58c12.36-2.02,23.99-5.89,34.72-13.29c-1.17-2.19-2.17-4.03-3.56-6.62
			c-17.13,10.56-35.09,14.1-54.01,11.62c-26.53-3.48-46.01-16.37-54.85-42.86c-4.62-13.85-5.06-27.85-2.24-42.01
			c5.99-30.07,33.63-54.64,68.38-49.66c27.19,3.9,54.16,28.33,51.72,62.45c-1.28,17.93-11.82,34.61-26.2,39.81
			c-15.66,5.66-26.37-1.74-26.48-18.33c-0.07-10.85-0.14-21.7-0.05-32.55c0.03-3.38-1.01-5.2-4.68-5.11c-3.2,0.07-6.4,0.07-9.6,0.04
			v16.74c0.02,9.35,0.23,18.69,0.49,28.04c0.29,10.56,5.99,17.68,16.25,20.56c17.6,4.94,41.04-4.03,53.31-20.41
			C511.67,85.25,496.9,37.18,458.39,21.94z"/>
		<path class="st0" d="M434.78,52.52c-0.04,5.71-4.46,10.11-9.96,9.92c-5.19-0.17-9.48-4.64-9.54-9.94
			c-0.06-5.56,4.39-10.18,9.81-10.19C430.62,42.31,434.81,46.73,434.78,52.52z"/>
	</g>
	<g>
		<text transform="matrix(1 0 0 1 348.7071 168.2432)" class="st1 st2 st3"> </text>
	</g>
	<g>
		<path class="st4" d="M510.01,54.94l1.78,3.67h-1.2l-1.67-3.44h-0.02h-2.83v3.44h-1.03v-9.17h3.86c0.33,0,0.66,0.06,0.97,0.17
			c0.45,0.15,0.85,0.43,1.16,0.79c0.48,0.51,0.75,1.21,0.76,1.91c0,0.66-0.27,1.32-0.67,1.82
			C510.82,54.48,510.44,54.76,510.01,54.94z M506.07,54.18h2.83c0.51,0,1.06-0.25,1.4-0.69c0.27-0.33,0.43-0.75,0.42-1.18
			c-0.01-0.48-0.19-0.95-0.54-1.3c-0.32-0.34-0.81-0.57-1.29-0.57h-2.83V54.18z"/>
	</g>
	<text transform="matrix(1 0 0 1 374.711 143.0352)" class="st1 st2 st3"> </text>
	<g>
		<path class="st4" d="M508.3,61.66c-4.33,0-7.86-3.52-7.86-7.86s3.52-7.86,7.86-7.86s7.86,3.52,7.86,7.86S512.64,61.66,508.3,61.66
			z M508.3,46.99c-3.75,0-6.81,3.06-6.81,6.81s3.06,6.81,6.81,6.81s6.81-3.06,6.81-6.81S512.06,46.99,508.3,46.99z"/>
	</g>
	<g>
		<g>
			<g>
				<path class="st4" d="M15.14,20.87v32.49h-5.1V20.87H15.14z"/>
				<path class="st4" d="M63.37,53.36h-5.14V31.83l-10.2,21.52h-2.17L35.62,31.83v21.52h-5.14V20.87h5.14L46.95,44.6l11.28-23.74
					h5.14V53.36z"/>
			</g>
		</g>
		<g>
			<g>
				<path class="st4" d="M81.14,48.76c-2.62-3.25-3.7-7.4-3.7-11.64c0-4.29,1.08-8.44,3.7-11.69c2.75-3.52,7.13-5.23,11.78-5.23
					c4.6,0.04,8.93,1.76,11.73,5.23c2.75,3.38,3.61,7.4,3.7,11.69c-0.05,4.38-1.04,8.35-3.7,11.64c-2.84,3.56-7.17,5.28-11.73,5.28
					C88.27,54.03,83.9,52.28,81.14,48.76z M100.59,45.69c1.8-2.35,2.39-5.51,2.39-8.57c0-3.07-0.59-6.27-2.39-8.57
					c-1.71-2.35-4.65-3.56-7.67-3.52c-3.02-0.04-6,1.17-7.72,3.52c-1.85,2.3-2.35,5.51-2.39,8.57c0,3.07,0.54,6.23,2.39,8.57
					c1.72,2.35,4.69,3.56,7.72,3.52C95.94,49.25,98.88,48.03,100.59,45.69z"/>
			</g>
		</g>
		<g>
			<g>
				<path class="st4" d="M145.92,43.75c-0.04,2.08-0.72,4.11-1.99,5.78c-1.31,1.62-3.07,2.75-4.96,3.34
					c-1.22,0.36-2.44,0.5-3.66,0.5h-12.91V20.87h12.23c1.08,0,2.35,0.09,3.29,0.41c1.8,0.5,3.43,1.58,4.51,3.11
					c1.22,1.44,1.85,3.38,1.94,5.32c0.09,1.9-0.63,3.84-1.85,5.32c-0.18,0.27-0.41,0.54-0.59,0.77c0.77,0.59,1.49,1.31,2.08,2.12
					C145.28,39.6,145.92,41.63,145.92,43.75z M127.55,25.61v8.35h8.08c0.9-0.18,2.08-0.77,2.71-1.67c0.59-0.72,0.9-1.62,0.86-2.57
					c0-1.04-0.41-1.99-1.08-2.71c-0.72-0.86-1.85-1.4-2.93-1.4H127.55z M140.77,43.75c0-1.17-0.45-2.44-1.22-3.34
					c-0.99-1.17-2.35-1.67-3.61-1.67h-8.39v9.79h7.72c1.67,0,2.93-0.23,4.02-1.4C140.23,46.27,140.73,45.06,140.77,43.75z"/>
			</g>
		</g>
		<g>
			<g>
				<path class="st4" d="M164.48,20.87v32.49h-5.1V20.87H164.48z"/>
			</g>
		</g>
		<g>
			<g>
				<path class="st4" d="M185.02,20.87v27.39h14.53v5.1h-19.63V20.87H185.02z"/>
				<path class="st4" d="M217.06,20.87v32.49h-5.1V20.87H217.06z"/>
				<path class="st4" d="M250.13,47.81h-14.12l-1.76,5.55h-5.23l10.42-32.49h7.35l10.42,32.49h-5.28L250.13,47.81z M248.6,43.02
					l-5.55-17.15l-5.51,17.15H248.6z"/>
			</g>
		</g>
		<g>
			<g>
				<path class="st4" d="M288.55,40.81l6.14,12.54h-5.78l-5.6-11.55h-8.48v11.55h-5.1V20.87h14.35c1.13,0,2.3,0.18,3.34,0.54
					c1.94,0.63,3.65,1.81,4.87,3.43c1.49,1.8,2.35,4.15,2.39,6.5c0.05,2.3-0.86,4.65-2.26,6.41
					C291.43,39.05,290.08,40.09,288.55,40.81z M274.83,37.02h9.2c1.49,0,3.2-0.81,4.24-2.17c0.77-0.99,1.26-2.21,1.22-3.52
					c-0.04-1.4-0.54-2.8-1.49-3.79c-0.95-1.08-2.53-1.9-3.97-1.9h-9.2V37.02z"/>
			</g>
		</g>
		<g>
			<g>
				<path class="st4" d="M312.12,20.87v32.49h-5.1V20.87H312.12z"/>
			</g>
		</g>
		<g>
			<g>
				<path class="st4" d="M345.26,47.81h-14.12l-1.76,5.55h-5.23l10.42-32.49h7.36l10.42,32.49h-5.28L345.26,47.81z M343.73,43.02
					l-5.55-17.15l-5.51,17.15H343.73z"/>
			</g>
		</g>
		<g>
			<g>
				<path class="st1" d="M10.21,71.88h13.84l17.79,58.51l18.09-58.51h13.84l-21.74,71.16H31.96L10.21,71.88z"/>
			</g>
		</g>
		<g>
			<g>
				<path class="st1" d="M112.15,71.88v71.16H98.71V71.88H112.15z"/>
			</g>
		</g>
		<g>
			<g>
				<path class="st1" d="M190.93,85.32H168.5v57.72h-13.44V85.32h-22.43V71.88h58.31V85.32z"/>
			</g>
		</g>
		<g>
			<g>
				<path class="st1" d="M260.63,116.25l13.05,26.78h-15.22l-11.76-24.21h-15.91v24.21h-13.44V71.88h32.52
					c2.47,0,4.94,0.4,7.21,1.09c4.74,1.48,8.99,4.45,11.86,8.5c2.96,3.95,4.64,8.99,4.74,13.94c0.1,4.94-1.78,9.98-4.74,13.94
					C266.86,112.2,263.99,114.67,260.63,116.25z M230.78,106.27h18.98c2.67,0,6.03-1.58,8.1-4.35c1.38-1.88,2.27-4.15,2.17-6.52
					c-0.1-2.57-0.89-5.14-2.57-7.02c-1.88-2.17-4.94-3.85-7.71-3.85h-18.98V106.27z"/>
			</g>
		</g>
		<g>
			<g>
				<path class="st1" d="M312.91,71.88v71.16h-13.44V71.88H312.91z"/>
			</g>
		</g>
		<g>
			<g>
				<path class="st1" d="M383.72,118.33V71.88h13.64v71.16H385.5l-32.61-46.45v46.45h-13.74V71.88H351L383.72,118.33z"/>
			</g>
		</g>
		<g>
			<g>
				<path class="st4" d="M252.37,11.26l-7.74,7.3h-2.94v-0.19l4.74-7.24h5.94V11.26z"/>
			</g>
		</g>
	</g>
</g>
</svg>
